<svg width="23" height="18" viewBox="0 0 23 18" fill="none" xmlns="http://www.w3.org/2000/svg">
<g clip-path="url(#clip0_46_753)">
<path d="M7.5624 12.375C11.6018 12.375 14.8749 9.60469 14.8749 6.1875C14.8749 2.77031 11.6018 0 7.5624 0C3.52294 0 0.249896 2.77031 0.249896 6.1875C0.249896 7.54453 0.766693 8.79961 1.64208 9.82266C1.51904 10.1531 1.33622 10.4449 1.14287 10.691C0.974115 10.909 0.80185 11.0777 0.675287 11.1937C0.612006 11.25 0.559271 11.2957 0.524115 11.3238C0.506537 11.3379 0.492475 11.3484 0.485443 11.352L0.478412 11.359C0.285053 11.5031 0.200678 11.7562 0.278021 11.9848C0.355365 12.2133 0.569818 12.375 0.812396 12.375C1.5788 12.375 2.35224 12.1781 2.9956 11.9355C3.31904 11.8125 3.62138 11.6754 3.88505 11.5348C4.96435 12.0691 6.21943 12.375 7.5624 12.375ZM15.9999 6.1875C15.9999 10.1355 12.5159 13.1098 8.38857 13.4648C9.24286 16.0805 12.0765 18 15.4374 18C16.7804 18 18.0354 17.6941 19.1183 17.1598C19.3819 17.3004 19.6808 17.4375 20.0042 17.5605C20.6476 17.8031 21.421 18 22.1874 18C22.43 18 22.6479 17.8418 22.7218 17.6098C22.7956 17.3777 22.7147 17.1246 22.5179 16.9805L22.5108 16.9734C22.5038 16.9664 22.4897 16.9594 22.4722 16.9453C22.437 16.9172 22.3843 16.875 22.321 16.8152C22.1944 16.6992 22.0222 16.5305 21.8534 16.3125C21.6601 16.0664 21.4772 15.7711 21.3542 15.4441C22.2296 14.4246 22.7464 13.1695 22.7464 11.809C22.7464 8.54648 19.7616 5.87109 15.9753 5.63906C15.9893 5.81836 15.9964 6.00117 15.9964 6.18398L15.9999 6.1875Z" fill="#2563EB"/>
</g>
<defs>
<clipPath id="clip0_46_753">
<path d="M0.25 0H22.75V18H0.25V0Z" fill="white"/>
</clipPath>
</defs>
</svg>
