<svg width="19" height="18" viewBox="0 0 19 18" fill="none" xmlns="http://www.w3.org/2000/svg">
<path d="M12.625 11.25C15.7328 11.25 18.25 8.73281 18.25 5.625C18.25 5.08711 18.1727 4.5668 18.032 4.07109C17.923 3.69141 17.4555 3.60703 17.1777 3.88477L14.4777 6.58477C14.3723 6.69023 14.2281 6.75 14.0805 6.75H12.0625C11.7531 6.75 11.5 6.49687 11.5 6.1875V4.16953C11.5 4.02187 11.5598 3.87773 11.6652 3.77227L14.3652 1.07227C14.643 0.794531 14.5551 0.326953 14.1789 0.217969C13.6832 0.0773437 13.1629 0 12.625 0C9.51719 0 7 2.51719 7 5.625C7 6.29648 7.11953 6.94336 7.33398 7.54102L0.949609 13.9254C0.503125 14.3719 0.25 14.9801 0.25 15.6129C0.25 16.9312 1.31875 18 2.63711 18C3.26992 18 3.87812 17.7469 4.32461 17.3004L10.709 10.916C11.3066 11.134 11.9535 11.25 12.625 11.25ZM3.0625 14.3438C3.28628 14.3438 3.50089 14.4326 3.65912 14.5909C3.81736 14.7491 3.90625 14.9637 3.90625 15.1875C3.90625 15.4113 3.81736 15.6259 3.65912 15.7841C3.50089 15.9424 3.28628 16.0312 3.0625 16.0312C2.83872 16.0312 2.62411 15.9424 2.46588 15.7841C2.30764 15.6259 2.21875 15.4113 2.21875 15.1875C2.21875 14.9637 2.30764 14.7491 2.46588 14.5909C2.62411 14.4326 2.83872 14.3438 3.0625 14.3438Z" fill="#2563EB"/>
</svg>
