<svg width="15" height="16" viewBox="0 0 15 16" fill="none" xmlns="http://www.w3.org/2000/svg">
<path d="M8.65625 1.8125C8.65625 1.19023 8.15352 0.6875 7.53125 0.6875C6.90898 0.6875 6.40625 1.19023 6.40625 1.8125V6.875H1.34375C0.721484 6.875 0.21875 7.37773 0.21875 8C0.21875 8.62227 0.721484 9.125 1.34375 9.125H6.40625V14.1875C6.40625 14.8098 6.90898 15.3125 7.53125 15.3125C8.15352 15.3125 8.65625 14.8098 8.65625 14.1875V9.125H13.7188C14.341 9.125 14.8438 8.62227 14.8438 8C14.8438 7.37773 14.341 6.875 13.7188 6.875H8.65625V1.8125Z" fill="#2563EB"/>
</svg>
