<svg width="22" height="18" viewBox="0 0 22 18" fill="none" xmlns="http://www.w3.org/2000/svg">
<g clip-path="url(#clip0_46_736)">
<path d="M0.96875 0.84375C0.96875 0.376172 1.34492 0 1.8125 0H3.41211C4.18555 0 4.87109 0.45 5.19102 1.125H19.6402C20.5648 1.125 21.2398 2.00391 20.9973 2.89688L19.5559 8.25117C19.257 9.35508 18.2551 10.125 17.1125 10.125H6.96992L7.15977 11.127C7.23711 11.5242 7.58516 11.8125 7.98945 11.8125H18.125C18.5926 11.8125 18.9688 12.1887 18.9688 12.6562C18.9688 13.1238 18.5926 13.5 18.125 13.5H7.98945C6.77305 13.5 5.72891 12.6352 5.50391 11.4434L3.68984 1.91602C3.66523 1.78242 3.54922 1.6875 3.41211 1.6875H1.8125C1.34492 1.6875 0.96875 1.31133 0.96875 0.84375ZM5.46875 16.3125C5.46875 16.0909 5.5124 15.8715 5.5972 15.6667C5.68201 15.462 5.80631 15.276 5.96301 15.1193C6.11971 14.9626 6.30573 14.8383 6.51047 14.7535C6.71521 14.6686 6.93464 14.625 7.15625 14.625C7.37786 14.625 7.59729 14.6686 7.80203 14.7535C8.00677 14.8383 8.19279 14.9626 8.34949 15.1193C8.50619 15.276 8.63049 15.462 8.7153 15.6667C8.8001 15.8715 8.84375 16.0909 8.84375 16.3125C8.84375 16.5341 8.8001 16.7535 8.7153 16.9583C8.63049 17.163 8.50619 17.349 8.34949 17.5057C8.19279 17.6624 8.00677 17.7867 7.80203 17.8715C7.59729 17.9564 7.37786 18 7.15625 18C6.93464 18 6.71521 17.9564 6.51047 17.8715C6.30573 17.7867 6.11971 17.6624 5.96301 17.5057C5.80631 17.349 5.68201 17.163 5.5972 16.9583C5.5124 16.7535 5.46875 16.5341 5.46875 16.3125ZM17.2812 14.625C17.7288 14.625 18.158 14.8028 18.4745 15.1193C18.791 15.4357 18.9688 15.8649 18.9688 16.3125C18.9688 16.7601 18.791 17.1893 18.4745 17.5057C18.158 17.8222 17.7288 18 17.2812 18C16.8337 18 16.4045 17.8222 16.088 17.5057C15.7715 17.1893 15.5938 16.7601 15.5938 16.3125C15.5938 15.8649 15.7715 15.4357 16.088 15.1193C16.4045 14.8028 16.8337 14.625 17.2812 14.625Z" fill="#2563EB"/>
</g>
<defs>
<clipPath id="clip0_46_736">
<path d="M0.96875 0H21.2188V18H0.96875V0Z" fill="white"/>
</clipPath>
</defs>
</svg>
